<?xml version="1.0" standalone="no"?>
<!DOCTYPE svg PUBLIC "-//W3C//DTD SVG 20010904//EN"
 "http://www.w3.org/TR/2001/REC-SVG-20010904/DTD/svg10.dtd">
<svg version="1.0" xmlns="http://www.w3.org/2000/svg"
 width="251.000000pt" height="251.000000pt" viewBox="0 0 251.000000 251.000000"
 preserveAspectRatio="xMidYMid meet">
<metadata>
Created by potrace 1.14, written by Peter Selinger 2001-2017
</metadata>
<g transform="translate(0.000000,251.000000) scale(0.100000,-0.100000)"
fill="#000000" stroke="none">
<path d="M1469 2477 c90 -141 120 -247 116 -396 -7 -233 -147 -464 -371 -613
-117 -78 -318 -174 -511 -244 -383 -139 -572 -331 -591 -600 -4 -69 -3 -74 29
-120 50 -74 133 -152 239 -226 112 -77 158 -101 345 -179 140 -59 172 -69 159
-48 -8 14 -8 121 0 167 27 144 136 291 298 400 40 27 154 95 253 151 253 144
347 219 454 362 211 281 261 637 138 978 -23 66 -40 93 -76 128 -94 92 -303
211 -443 254 l-59 17 20 -31z"/>
<path d="M1030 2368 c-63 -11 -101 -32 -149 -80 -57 -56 -83 -110 -88 -183 -6
-73 7 -127 47 -187 64 -96 184 -141 298 -112 104 27 179 101 205 203 54 210
-109 397 -313 359z"/>
<path d="M2062 2098 c22 -60 22 -59 44 -148 22 -91 27 -316 9 -405 -25 -124
-114 -343 -161 -396 -8 -8 -14 -20 -14 -26 0 -6 -3 -13 -8 -15 -4 -1 -23 -23
-42 -48 -91 -119 -237 -226 -516 -375 -137 -74 -202 -121 -289 -210 -124 -127
-175 -249 -161 -389 3 -32 7 -60 9 -62 16 -16 243 -25 340 -13 133 17 152 20
258 55 469 151 797 532 867 1004 17 109 6 376 -18 459 -5 17 -7 31 -5 31 3 0
-12 46 -31 103 -43 123 -101 237 -169 333 -47 67 -120 154 -129 154 -2 0 5
-24 16 -52z"/>
</g>
</svg>
